#N canvas 160 520 450 300 14;
#X obj 120 40 inlet beat;
#X obj 220 40 inlet tempo;
#X obj 230 110 rind;
#X obj 120 150 rind;
#X obj 120 190 -;
#X obj 230 230 outlet attack;
#X obj 120 70 t;
#X obj 120 230 outlet decay;
#X obj 270 110 * \$1;
#X obj 140 110 * \$2;
#X obj 180 110 * \$3;
#X connect 0 0 6 0;
#X connect 1 0 8 0;
#X connect 1 0 9 0;
#X connect 1 0 10 0;
#X connect 2 0 4 1;
#X connect 2 0 5 0;
#X connect 3 0 4 0;
#X connect 4 0 7 0;
#X connect 6 0 3 0;
#X connect 6 1 2 0;
#X connect 8 0 2 2;
#X connect 9 0 3 1;
#X connect 10 0 3 2;
