#N canvas 200 520 420 330 14;
#X obj 40 220 *~;
#X obj 60 290 dac~;
#X obj 110 190 noise~;
#X obj 40 250 *~;
#X floatatom 160 280 0 0 0 0 - - - 0;
#X obj 110 220 hsl 128 20 0.001 1 1 0 empty empty volume 35 10 0 12
#2f004d #fcfcfc #fcfcfc 0 1;
#N canvas 970 490 450 300 vol 0;
#X obj 160 190 zp~ 15;
#X msg 160 120 0;
#X obj 160 60 inlet;
#X obj 160 220 outlet~;
#X obj 230 190 outlet;
#X obj 160 150 f;
#X obj 160 90 moses 0.00101;
#X obj 260 120 r \$0vol;
#X obj 310 120 f;
#X obj 310 90 r \$0play;
#X msg 310 150 now \$1;
#X connect 0 0 3 0;
#X connect 1 0 5 0;
#X connect 2 0 6 0;
#X connect 5 0 0 0;
#X connect 5 0 4 0;
#X connect 6 0 1 0;
#X connect 6 1 5 0;
#X connect 7 0 8 1;
#X connect 7 0 0 0;
#X connect 8 0 10 0;
#X connect 9 0 8 0;
#X connect 10 0 0 0;
#X restore 110 250 pd vol;
#X floatatom 40 50 0 0 0 0 - - - 0;
#N canvas 560 520 360 350 velocity 0;
#X obj 30 20 inlet;
#X obj 30 80 mod 4;
#X obj 30 50 f;
#X obj 70 50 + 1;
#X obj 30 300 outlet;
#X obj 130 50 inlet;
#X obj 30 110 t f f;
#X obj 30 240 *;
#X obj 220 50 inlet;
#X obj 30 270 @/ 1;
#X floatatom 90 300 0 0 0 0 - - - 0;
#X obj 230 110 % 4;
#X obj 230 140 sel;
#X obj 30 140 sel;
#X obj 30 200 unpack;
#X obj 80 270 outlet;
#X obj 100 200 pack;
#X obj 230 200 unpack;
#X obj 100 170 sly 1.25 2.5 4;
#X msg 280 170 12 3.5;
#X msg 230 170 24 1;
#X msg 30 170 1 48;
#X connect 0 0 2 0;
#X connect 1 0 3 0;
#X connect 1 0 6 0;
#X connect 2 0 1 0;
#X connect 3 0 2 1;
#X connect 5 0 1 1;
#X connect 5 0 18 3;
#X connect 6 0 13 0;
#X connect 6 1 11 0;
#X connect 7 0 9 0;
#X connect 8 0 11 1;
#X connect 9 0 4 0;
#X connect 9 0 10 0;
#X connect 11 0 12 0;
#X connect 12 0 20 0;
#X connect 12 1 19 0;
#X connect 13 0 21 0;
#X connect 13 1 18 0;
#X connect 14 0 7 0;
#X connect 14 1 15 0;
#X connect 16 0 14 0;
#X connect 17 0 16 1;
#X connect 17 1 7 1;
#X connect 18 0 16 0;
#X connect 19 0 17 0;
#X connect 20 0 17 0;
#X connect 21 0 14 0;
#X restore 40 150 pd velocity;
#X msg 40 20 750;
#X msg 120 20 1000;
#X msg 80 20 875;
#X obj 80 50 r \$0met;
#X obj 120 120 r \$0accent;
#X obj 150 50 r \$0bang;
#X obj 40 120 metro~ 1;
#X obj 40 90 @/ 1000;
#X msg 230 50 \; pd dsp 1;
#X obj 230 20 r \$0play;
#X obj 140 150 r \$0sub;
#X msg 270 100 4;
#X msg 320 100 4;
#X obj 320 160 s \$0sub;
#X floatatom 320 130 0 0 0 0 - - - 0;
#X floatatom 230 130 0 0 0 0 - - - 0;
#X obj 230 160 s \$0accent;
#X msg 230 100 12;
#X obj 40 190 ad 1.5;
#X connect 0 0 3 0;
#X connect 2 0 0 1;
#X connect 3 0 1 0;
#X connect 3 0 1 1;
#X connect 5 0 6 0;
#X connect 6 0 3 1;
#X connect 6 1 4 0;
#X connect 7 0 16 0;
#X connect 8 0 27 0;
#X connect 8 1 27 2;
#X connect 9 0 7 0;
#X connect 10 0 7 0;
#X connect 11 0 7 0;
#X connect 12 0 16 0;
#X connect 13 0 8 1;
#X connect 14 0 16 0;
#X connect 15 0 8 0;
#X connect 16 0 15 0;
#X connect 18 0 17 0;
#X connect 19 0 8 2;
#X connect 20 0 24 0;
#X connect 21 0 23 0;
#X connect 23 0 22 0;
#X connect 24 0 25 0;
#X connect 26 0 24 0;
#X connect 27 0 0 0;
