#N canvas 740 300 670 450 14;
#X declare -path pd;
#X obj 70 400 dac~;
#X obj 90 360 *~;
#X floatatom 140 330 0 0 0 0 - - - 0;
#N canvas 0 50 450 250 (subpatch) 0;
#X array \$0view 480 float 2;
#X coords 0 1.0833 480 -1.0833 240 130 1 0 0;
#X restore 350 40 graph;
#X floatatom 270 270 0 0 0 0 - - - 0;
#X obj 190 280 tgl 15 0 empty empty empty 17 7 0 10 #000000 #fcfcfc #fcfcfc 0 1;
#X obj 90 270 *~;
#X obj 120 240 ad 10 130;
#N canvas 850 360 550 280 vals 0;
#X obj 300 220 outlet~;
#X obj 40 220 outlet~;
#X obj 210 220 outlet~;
#X obj 400 220 outlet~;
#X obj 400 190 curve~ -0.5;
#X floatatom 360 30 0 0 0 0 - - - 0;
#X obj 400 160 pack;
#X floatatom 330 30 0 0 0 0 - - - 0;
#X floatatom 440 30 0 0 0 0 - - - 0;
#X floatatom 240 30 0 0 0 0 - - - 0;
#X obj 400 100 rind 0 2;
#X floatatom 270 30 0 0 0 0 - - - 0;
#X obj 210 100 rand -1 2;
#X obj 300 100 rand -2 2;
#X obj 40 100 rand 7;
#X obj 40 130 muse 50 2 4 5 7 9 10;
#X obj 40 190 zp~ 5;
#X obj 110 20 inlet;
#X obj 420 130 r \$0tempo;
#X obj 310 130 expr ln(2);
#X obj 210 160 *;
#X obj 300 160 *;
#X obj 210 190 exp;
#X obj 220 130 loadbang;
#X obj 300 190 exp;
#X connect 4 0 3 0;
#X connect 5 0 13 2;
#X connect 6 0 4 0;
#X connect 7 0 13 1;
#X connect 8 0 10 2;
#X connect 9 0 12 1;
#X connect 10 0 6 0;
#X connect 11 0 12 2;
#X connect 12 0 20 0;
#X connect 13 0 21 0;
#X connect 14 0 15 0;
#X connect 15 0 16 0;
#X connect 16 0 1 0;
#X connect 17 0 14 0;
#X connect 17 0 13 0;
#X connect 17 0 12 0;
#X connect 17 0 10 0;
#X connect 18 0 6 1;
#X connect 19 0 20 1;
#X connect 19 0 21 1;
#X connect 20 0 22 0;
#X connect 21 0 24 0;
#X connect 22 0 2 0;
#X connect 23 0 19 0;
#X connect 24 0 0 0;
#X restore 40 180 pd vals;
#X obj 90 300 *~ 0.6;
#X obj 140 360 / 1000;
#X obj 150 390 r \$0vol;
#X obj 190 330 tabwrite~ \$0view;
#X obj 40 240 fm2op~, f 8;
#X msg 120 210 1;
#X obj 180 70 r \$0tempo;
#X obj 420 320 s \$0tempo;
#X obj 370 220 r \$0play;
#X obj 370 250 pipe 500;
#X obj 110 100 metro~;
#X obj 110 70 @/ 1000;
#X obj 110 130 t;
#X floatatom 470 250 0 0 0 0 - - - 0;
#X obj 180 170 rad 0.03 0.5 2;
#X obj 190 300 metro 40;
#X obj 30 30 declare -path pd;
#X connect 1 0 0 0;
#X connect 1 0 0 1;
#X connect 2 0 10 0;
#X connect 4 0 24 1;
#X connect 5 0 24 0;
#X connect 6 0 9 0;
#X connect 7 0 6 1;
#X connect 8 0 13 0;
#X connect 8 1 13 1;
#X connect 8 2 13 2;
#X connect 8 3 13 3;
#X connect 9 0 1 0;
#X connect 9 0 12 0;
#X connect 10 0 1 1;
#X connect 11 0 1 1;
#X connect 13 0 6 0;
#X connect 14 0 7 0;
#X connect 15 0 20 0;
#X connect 15 0 23 1;
#X connect 17 0 18 0;
#X connect 18 0 16 0;
#X connect 19 0 21 0;
#X connect 20 0 19 0;
#X connect 21 0 14 0;
#X connect 21 0 8 0;
#X connect 21 1 23 0;
#X connect 22 0 16 0;
#X connect 23 0 7 2;
#X connect 23 1 7 1;
#X connect 24 0 12 0;
